Coordinates
version=1
nRows=9
nColumns=42
inDegrees=yes

Units are S.I. units (second, meters, Newtons, ...)
If the header above contains a line with 'inDegrees', this indicates whether rotational values are in degrees (yes) or radians (no).

endheader
time	pelvis_tilt	pelvis_list	pelvis_rotation	pelvis_tx	pelvis_ty	pelvis_tz	hip_flexion_r	hip_adduction_r	hip_rotation_r	knee_angle_r	knee_adduction_r	knee_angle_r_beta	ankle_angle_r	subtalar_angle_r	mtp_angle_r	hip_flexion_l	hip_adduction_l	hip_rotation_l	knee_angle_l	knee_adduction_l	knee_angle_l_beta	ankle_angle_l	subtalar_angle_l	mtp_angle_l	lumbar_extension	lumbar_bending	lumbar_rotation	arm_flex_r	arm_add_r	arm_rot_r	elbow_flex_r	pro_sup_r	wrist_flex_r	wrist_dev_r	arm_flex_l	arm_add_l	arm_rot_l	elbow_flex_l	pro_sup_l	wrist_flex_l	wrist_dev_l
      0.00000000	      5.47989563	      1.97756516	     -5.03371657	     -2.81779850	      0.83608939	      0.11396092	    -18.20341426	      0.30930147	    -21.67946647	     33.50587707	    -12.86064157	      0.58478787	      7.83605531	     22.56882436	     -9.41956566	     26.44891468	      6.38642572	     -3.28525661	     31.15992280	     -4.77727368	      0.54384325	      5.96332703	     -7.20461210	     -9.41956566	    -21.03434776	     -3.89141826	     10.43384345	     12.49841785	    -21.83015529	      8.79834340	     54.98541909	     90.00000001	      0.00000000	      0.00000000	     -9.26259677	    -16.93054591	     33.84721516	     31.04358408	     90.00000001	      0.00000000	      0.00000000
      0.01000000	      5.79939990	      2.50218516	     -4.81381524	     -2.80396500	      0.83787567	      0.11302149	    -17.46523642	     -0.71506546	    -22.60287439	     36.31903977	    -13.53596876	      0.63388683	      4.18550886	     21.86652328	     -9.39992595	     25.55905381	      7.18650645	     -3.04177583	     32.05971955	     -4.52138893	      0.55954766	      6.88174622	     -7.55426684	     -9.39992595	    -21.38162089	     -4.45970354	     10.14622111	     11.97362926	    -21.69243923	      8.87730300	     54.19975623	     90.00000001	      0.00000000	      0.00000000	     -8.32842947	    -17.05366610	     33.85132294	     31.11522857	     90.00000001	      0.00000000	      0.00000000
      0.02000000	      5.67831430	      2.92674574	     -4.35115134	     -2.79082385	      0.83945573	      0.11187771	    -15.89925673	     -1.34553031	    -23.19431640	     39.57280905	    -14.30626323	      0.69067581	      0.00848055	     18.20953061	     -9.26103315	     24.97666522	      8.04215304	     -2.04308956	     32.58485040	     -4.21072664	      0.56871293	      7.17826137	     -8.94353467	     -9.26103315	    -21.30336614	     -4.82489017	      9.75334427	     11.44119947	    -21.48377819	      8.90828875	     53.09255271	     90.00000001	      0.00000000	      0.00000000	     -7.17307631	    -17.27090275	     34.32710690	     31.05666906	     90.00000001	      0.00000000	      0.00000000
      0.03000000	      5.78349721	      3.39134307	     -4.04395385	     -2.77754448	      0.84158914	      0.11078062	    -14.42501556	     -2.29009978	    -24.42846659	     42.75046782	    -15.39203594	      0.74613642	     -3.48189000	     16.91873707	     -9.23469680	     23.87924312	      8.86798953	     -1.87668898	     32.60191888	     -4.22282311	      0.56901083	      8.13494356	     -8.93203989	     -9.23469680	    -21.42969652	     -5.23619365	      9.46412069	     10.90048750	    -21.37939726	      9.13457427	     52.03719430	     90.00000001	      0.00000000	      0.00000000	     -6.05712612	    -17.37105830	     34.24038930	     31.18524728	     90.00000001	      0.00000000	      0.00000000
      0.04000000	      5.71272182	      3.58774430	     -3.64293587	     -2.76478910	      0.84383537	      0.10961632	    -12.60222255	     -2.78447379	    -24.66325180	     46.19477993	    -15.89524809	      0.80625101	     -6.68849990	     12.44598333	     -9.12702764	     22.91414101	      9.37281442	     -1.62190637	     32.49980493	     -4.21667311	      0.56722860	      8.91643638	     -8.86352821	     -9.12702764	    -21.42100539	     -5.28693835	      9.14541717	     10.47646266	    -21.31068854	      9.49031270	     50.79758505	     90.00000001	      0.00000000	      0.00000000	     -4.87352971	    -17.36202347	     33.94472876	     31.28153386	     90.00000001	      0.00000000	      0.00000000
      0.05000000	      5.77335988	      3.90501915	     -3.37625492	     -2.75183025	      0.84641432	      0.10872893	    -10.79071923	     -3.54710312	    -25.79544698	     49.35867576	    -17.09819045	      0.86147141	     -8.71619241	     10.85178303	     -9.09027339	     21.55361372	      9.97549663	     -1.59645689	     31.94516671	     -4.32437201	      0.55754834	      9.97823098	     -8.37866313	     -9.09027339	    -21.49933946	     -5.50304245	      8.92570493	      9.93340902	    -21.24839192	      9.83156155	     49.67192998	     90.00000001	      0.00000000	      0.00000000	     -3.67742651	    -17.41675792	     33.61578416	     31.53771478	     90.00000001	      0.00000000	      0.00000000
      0.06000000	      5.69977510	      3.92179860	     -3.05661577	     -2.73932842	      0.84906933	      0.10772817	     -8.72784692	     -3.83914828	    -25.53338879	     52.76727949	    -17.22431491	      0.92096276	    -10.38351175	      5.74432019	     -8.99008131	     20.38981482	     10.25707518	     -1.47626662	     31.48496436	     -4.49363415	      0.54951629	     10.77640940	     -7.73686166	     -8.99008131	    -21.47411120	     -5.33015338	      8.64619481	      9.58399279	    -21.24653332	     10.45090264	     48.36532431	     90.00000001	      0.00000000	      0.00000000	     -2.56052858	    -17.24618481	     32.56776390	     31.80691575	     90.00000001	      0.00000000	      0.00000000
      0.07000000	      5.85069552	      3.97505451	     -2.89342224	     -2.72647729	      0.85214745	      0.10724831	     -6.88802698	     -4.18807401	    -26.37973524	     55.51200299	    -18.36100402	      0.96886723	    -10.51681265	      4.19888270	     -8.96031612	     18.71742358	     10.47441764	     -1.35196519	     30.62115043	     -4.53193579	      0.53443990	     11.75414816	     -7.22824211	     -8.96031612	    -21.63241009	     -5.26185084	      8.56801858	      8.99962269	    -21.22688172	     10.76487275	     47.35334565	     90.00000001	      0.00000000	      0.00000000	     -1.35525277	    -17.26126247	     32.09426224	     32.22072878	     90.00000001	      0.00000000	      0.00000000
      0.08000000	      5.75984326	      3.89405398	     -2.61385825	     -2.71421909	      0.85507584	      0.10625773	     -4.68209810	     -4.37646002	    -25.48747654	     58.61122408	    -17.73896959	      1.02295884	    -10.96617564	     -1.09983513	     -8.87008092	     17.39865064	     10.63084042	     -1.02036285	     29.82605500	     -4.64942354	      0.52056286	     12.37152348	     -6.62979070	     -8.87008092	    -21.59417245	     -4.94210704	      8.23962370	      8.68250906	    -21.26417424	     11.47593652	     46.10424580	     90.00000001	      0.00000000	      0.00000000	     -0.33154867	    -16.97242559	     30.36027668	     32.68196208	     90.00000001	      0.00000000	      0.00000000
